<svg width="536" height="435" viewBox="0 0 536 435" fill="none" xmlns="http://www.w3.org/2000/svg">
<line x1="220.5" y1="412" x2="220.5" y2="421" stroke="#FF4655"/>
<line x1="220.5" y1="426" x2="220.5" y2="435" stroke="#FF4655"/>
<line x1="232" y1="423.5" x2="223" y2="423.5" stroke="#FF4655"/>
<line x1="218" y1="423.5" x2="209" y2="423.5" stroke="#FF4655"/>
<rect x="220" y="423" width="1" height="1" fill="#FF4655"/>
<line x1="7.5" y1="60" x2="7.5" y2="65" stroke="#FF4655"/>
<line x1="7.5" y1="70" x2="7.5" y2="75" stroke="#FF4655"/>
<line x1="15" y1="67.5" x2="10" y2="67.5" stroke="#FF4655"/>
<line x1="5" y1="67.5" x2="-4.37114e-08" y2="67.5" stroke="#FF4655"/>
<rect x="7" y="67" width="1" height="1" fill="#FF4655"/>
<line x1="528.5" y1="3.05979e-08" x2="528.5" y2="5" stroke="#FF4655"/>
<line x1="528.5" y1="10" x2="528.5" y2="15" stroke="#FF4655"/>
<line x1="536" y1="7.5" x2="531" y2="7.5" stroke="#FF4655"/>
<line x1="526" y1="7.5" x2="521" y2="7.5" stroke="#FF4655"/>
<rect x="528" y="7" width="1" height="1" fill="#FF4655"/>
</svg>
