<svg width="781" height="720" viewBox="0 0 781 720" fill="none" xmlns="http://www.w3.org/2000/svg">
<path fill-rule="evenodd" clip-rule="evenodd" d="M-260.759 -216.153L-249.312 -204.706L-243.336 -203.714L-195.057 -157.428L-191.57 -157.929L-104.471 -70.8302L-103.978 -64.3556L-88.051 -48.429C-76.9304 -44.2866 -41.3401 -37.0076 12.0564 -41.0315L26.9877 -26.1002L10.0407 -9.15327L20.4925 1.29858L29.4484 14.2419L84.6939 69.4875L93.6578 71.4732L254.417 232.233L263.888 222.762L274.34 233.214L279.807 248.651L302.204 271.047C305.69 271.875 316.046 276.915 329.584 290.452L329.071 309.877C334.38 315.85 349.278 329.885 366.406 338.24L410.204 382.038C412.859 384.693 416.573 391.597 410.193 397.977L514.214 501.998L534.096 557.767L778.47 802.142C782.618 805.958 783.14 818.176 752.047 836.529L677.779 910.796C675.952 912.624 670.206 914.189 661.845 905.827L600.627 844.609L595.152 839.134L589.21 791.323L598.683 778.865L596.223 736.53L518.609 620.038C513.469 611.575 498.304 598.337 478.769 613.094C473.785 617.747 465.108 631.732 470.274 650.456C473.089 659.917 472.437 688.707 447.305 728.172C434.687 728.846 401.685 724.022 370.623 699.341C367.804 695.192 365.353 686.295 378.106 683.895C381.923 686.05 392.851 680.298 406.03 640.044L391.099 625.112C388.113 621.462 386.724 614.557 405.052 616.137C410.533 612.646 414.328 599.694 385.656 575.807C377.358 571.829 356.981 557.499 341.858 532.009C332.969 521.848 324.678 524.456 318.548 526.385C315.069 527.48 312.285 528.355 310.483 526.553C302.164 518.234 301.327 515.403 314.49 496.666C279.279 515.618 179.973 546.971 64.4392 520.757C61.1165 523.748 53.3769 527.639 49 519.274C47.0143 510.31 43.9457 483.915 47.5567 450.043L40.0866 448.554C37.0987 447.893 31.1243 444.576 31.1301 436.607C31.136 428.638 30.8076 423.658 30.6427 422.163C31.3085 419.839 34.433 415.387 41.6047 416.178L49.5724 418.165L48.5828 409.2C48.75 407.706 50.0802 404.916 54.0642 405.71C56.6637 406.228 57.9063 406.476 58.5707 407.231C59.179 407.924 59.3025 409.042 59.539 411.185C110.83 425.591 189.023 432.008 260.279 389.62C263.435 386.463 259.596 369.399 218.985 326.395L-4.98356 102.426L-12.9535 103.428C-14.9458 103.43 -19.1283 101.64 -19.9199 94.4681C-20.7116 87.2964 -20.5728 79.1943 -20.4045 76.0397C-21.0664 73.0518 -19.4019 67.2729 -7.44867 68.061L-51.247 24.2627L-53.2407 26.2565L-107.989 -28.4914L-105.995 -30.4851L-121.921 -46.4118L-129.393 -45.9082L-216.492 -133.007L-215.991 -136.494L-263.273 -183.776L-263.767 -190.251L-275.214 -201.698L-270.23 -206.682L-264.755 -201.208L-259.77 -206.192L-265.245 -211.667L-260.759 -216.153ZM376.297 551.543C377.29 552.536 396.152 558.493 395.159 537.645C395.325 536.156 396.648 532.383 400.619 529.206L385.232 513.819C383.577 512.164 378.084 509.45 369.347 511.833L353.96 527.221C352.305 528.875 350.584 533.773 356.938 540.127C357.68 540.868 358.534 541.74 359.484 542.709L359.485 542.71L359.486 542.711C368.711 552.123 386.98 570.763 399.13 569.413C409.852 568.222 414.849 559.651 416.007 555.514C415.014 553.198 411.54 549.061 405.583 551.047C404.356 552.274 403.318 553.49 402.351 554.622C397.448 560.365 394.37 563.971 377.786 556.011C375.8 554.356 372.723 551.146 376.297 551.543ZM55.1393 67.5739L-20.8067 -8.37211C-35.1024 -10.7547 -36.029 -0.0991367 -34.7053 5.5265L27.8385 68.0702L55.1393 67.5739ZM-241.199 -195.011L-224.819 -178.63L-235.739 -167.71L-252.119 -184.09L-241.199 -195.011Z" fill="#FF4655" fill-opacity="0.6"/>
</svg>
